<svg width="47" height="46" viewBox="0 0 47 46" fill="none" xmlns="http://www.w3.org/2000/svg">
<g clip-path="url(#clip0_87_586)">
<path d="M8.2921 0.574951H38.0005C42.5046 0.574951 46.1462 4.21659 46.1462 8.72081V37.2792C46.1462 41.7833 42.5046 45.425 38.0004 45.425H8.2921C3.78788 45.425 0.14624 41.7833 0.14624 37.2791V8.72081C0.14624 4.21659 3.78788 0.574951 8.2921 0.574951Z" fill="#390000"/>
<path d="M22.4371 27.4851H15.3071L13.8505 31.9893C13.8121 32.1618 13.6588 32.2768 13.4863 32.2576H9.88295C9.67209 32.2576 9.61459 32.1426 9.67209 31.9126L15.8437 14.1451C15.9012 13.9535 15.9587 13.7426 16.0354 13.5126C16.112 13.1101 16.1504 12.6885 16.1504 12.2668C16.1312 12.1709 16.2079 12.0751 16.3037 12.0559H16.3612H21.2679C21.4212 12.0559 21.4979 12.1134 21.517 12.2093L28.5129 31.9509C28.5704 32.1618 28.5129 32.2575 28.3212 32.2575H24.3154C24.1812 32.2767 24.047 32.1809 24.0087 32.0467L22.4371 27.4851ZM16.4187 23.5943H21.2871L18.8337 15.6018L16.4187 23.5943Z" fill="#FF9A00"/>
<path d="M32.6912 15.3334C32.0587 15.3526 31.4454 15.1034 30.9854 14.6625C30.5445 14.1834 30.3145 13.5509 30.3337 12.8992C30.3146 12.2476 30.5637 11.6342 31.0237 11.1933C31.4837 10.7525 32.0971 10.5225 32.7296 10.5225C33.4771 10.5225 34.0521 10.7525 34.4737 11.1933C34.8954 11.6533 35.1254 12.2667 35.1062 12.8992C35.1254 13.5508 34.8954 14.1833 34.4354 14.6625C33.9946 15.1226 33.3429 15.3717 32.6912 15.3334Z" fill="#FF9A00"/>
<path d="M30.5446 31.9701V17.2117C30.5446 17.0201 30.6212 16.9434 30.7937 16.9434H34.5887C34.7612 16.9434 34.8379 17.0392 34.8379 17.2117V31.9701C34.8379 32.181 34.7612 32.2767 34.5887 32.2767H30.8321C30.6404 32.2767 30.5446 32.1617 30.5446 31.9701Z" fill="#FF9A00"/>
</g>
<defs>
<clipPath id="clip0_87_586">
<rect width="46" height="46" fill="white" transform="translate(0.14624)"/>
</clipPath>
</defs>
</svg>
