<svg width="56" height="46" viewBox="0 0 56 46" fill="none" xmlns="http://www.w3.org/2000/svg">
<path d="M22.0487 25.4871C22.2516 21.874 24.0249 18.6908 26.7001 16.4343C29.3236 14.2179 32.8547 12.8633 36.7076 12.8633C40.5567 12.8633 44.0878 14.2179 46.7132 16.4343C49.3865 18.6908 51.1597 21.874 51.3646 25.4833C51.5676 29.1957 50.0721 32.6445 47.4486 35.201C44.7734 37.8014 40.9684 39.4332 36.7076 39.4332C32.4468 39.4332 28.6342 37.8014 25.9609 35.201C23.3355 32.6445 21.8438 29.1958 22.0487 25.4871Z" fill="white"/>
<path d="M29.1865 25.8114C29.2907 23.9575 30.2005 22.3241 31.5732 21.1663C32.9193 20.0291 34.7312 19.334 36.7081 19.334C38.6831 19.334 40.495 20.0291 41.8421 21.1663C43.2137 22.3241 44.1236 23.9574 44.2287 25.8094C44.3329 27.7143 43.5655 29.4839 42.2194 30.7956C40.8467 32.1299 38.8944 32.9672 36.7081 32.9672C34.5219 32.9672 32.5656 32.1299 31.1939 30.7956C29.8468 29.4839 29.0814 27.7143 29.1865 25.8114Z" fill="#265787"/>
<path d="M17.209 29.5573C17.2218 30.2828 17.4537 31.6926 17.8015 32.7936C18.5325 35.124 19.7725 37.2798 21.4979 39.1798C23.2685 41.1327 25.4489 42.7013 27.9672 43.815C30.6143 44.9846 33.4824 45.5807 36.4616 45.5758C39.4358 45.5719 42.3039 44.964 44.951 43.7856C47.4693 42.6611 49.6477 41.0856 51.4153 39.1317C53.1397 37.2239 54.3778 35.0641 55.1108 32.7338C55.4793 31.5563 55.7121 30.3612 55.8055 29.1622C55.8969 27.9809 55.8585 26.7976 55.6905 25.6152C55.3623 23.3113 54.5635 21.1496 53.3333 19.179C52.2083 17.3682 50.758 15.783 49.0336 14.4487L49.0375 14.4457L31.6351 1.11351C31.6194 1.10174 31.6067 1.08902 31.59 1.07823C30.4482 0.203732 28.5283 0.206678 27.2725 1.08314C26.003 1.9694 25.8576 3.43506 26.9876 4.35956L26.9827 4.36446L34.2409 10.2536L12.1183 10.2771H12.0888C10.2603 10.2791 8.50243 11.4761 8.1546 12.9889C7.79695 14.53 9.03891 15.8084 10.9402 15.8153L10.9373 15.8222L22.1504 15.8006L2.14124 31.1249C2.1157 31.1436 2.08818 31.1632 2.0646 31.1818C0.177077 32.624 -0.433087 35.022 0.755827 36.5396C1.96243 38.0827 4.52793 38.0857 6.4351 36.5484L17.3554 27.6309C17.3554 27.6309 17.1962 28.8348 17.209 29.5573ZM45.2703 33.5886C43.0202 35.8759 39.8701 37.1729 36.4616 37.1798C33.0481 37.1857 29.898 35.9004 27.6479 33.6171C26.5484 32.5044 25.7407 31.224 25.2425 29.8603C24.7542 28.5201 24.5646 27.0975 24.6903 25.6623C24.8092 24.2593 25.2278 22.9211 25.8959 21.7103C26.5523 20.5202 27.4563 19.4447 28.5725 18.5349C30.7597 16.7565 33.5443 15.7937 36.4566 15.7898C39.3719 15.7859 42.1546 16.7398 44.3438 18.5124C45.458 19.4182 46.361 20.4898 47.0173 21.678C47.6884 22.8878 48.1041 24.2211 48.2279 25.628C48.3517 27.0613 48.162 28.4819 47.6737 29.823C47.1746 31.1907 46.3698 32.471 45.2703 33.5886Z" fill="#EA7600"/>
</svg>
