<svg width="53" height="52" viewBox="0 0 53 52" fill="none" xmlns="http://www.w3.org/2000/svg">
<g clip-path="url(#clip0_87_632)">
<path d="M26.5204 27.0001C26.5204 25.3204 27.1877 23.7095 28.3754 22.5217C29.5632 21.334 31.1741 20.6667 32.8538 20.6667C34.5335 20.6667 36.1444 21.334 37.3321 22.5217C38.5199 23.7095 39.1871 25.3204 39.1871 27.0001C39.1871 28.6798 38.5199 30.2907 37.3321 31.4784C36.1444 32.6662 34.5335 33.3334 32.8538 33.3334C31.1741 33.3334 29.5632 32.6662 28.3754 31.4784C27.1877 30.2907 26.5204 28.6798 26.5204 27.0001Z" fill="#1ABCFE"/>
<path d="M13.8538 39.6666C13.8538 37.9869 14.521 36.376 15.7088 35.1882C16.8965 34.0005 18.5074 33.3333 20.1871 33.3333H26.5204V39.6666C26.5204 41.3463 25.8532 42.9572 24.6654 44.1449C23.4777 45.3327 21.8668 45.9999 20.1871 45.9999C18.5074 45.9999 16.8965 45.3327 15.7088 44.1449C14.521 42.9572 13.8538 41.3463 13.8538 39.6666Z" fill="#0ACF83"/>
<path d="M26.5204 8V20.6667H32.8538C34.5335 20.6667 36.1444 19.9994 37.3321 18.8117C38.5199 17.6239 39.1871 16.013 39.1871 14.3333C39.1871 12.6536 38.5199 11.0427 37.3321 9.85499C36.1444 8.66726 34.5335 8 32.8538 8H26.5204Z" fill="#FF7262"/>
<path d="M13.8538 14.3333C13.8538 16.013 14.521 17.6239 15.7088 18.8117C16.8965 19.9994 18.5074 20.6667 20.1871 20.6667H26.5204V8H20.1871C18.5074 8 16.8965 8.66726 15.7088 9.85499C14.521 11.0427 13.8538 12.6536 13.8538 14.3333Z" fill="#F24E1E"/>
<path d="M13.8538 27.0001C13.8538 28.6798 14.521 30.2907 15.7088 31.4784C16.8965 32.6662 18.5074 33.3334 20.1871 33.3334H26.5204V20.6667H20.1871C18.5074 20.6667 16.8965 21.334 15.7088 22.5217C14.521 23.7095 13.8538 25.3204 13.8538 27.0001Z" fill="#A259FF"/>
</g>
<defs>
<clipPath id="clip0_87_632">
<rect width="25.3333" height="38" fill="white" transform="translate(13.8538 8)"/>
</clipPath>
</defs>
</svg>
