<svg width="46" height="46" viewBox="0 0 46 46" fill="none" xmlns="http://www.w3.org/2000/svg">
<g clip-path="url(#clip0_87_603)">
<path d="M8.11273 0.821533H37.1798C41.5795 0.821533 45.1462 4.46755 45.1462 8.96505V37.0352C45.1462 41.5327 41.5796 45.1787 37.1798 45.1787H8.11273C3.71291 45.1786 0.14624 41.5327 0.14624 37.0351V8.96496C0.14624 4.46746 3.71291 0.821533 8.11273 0.821533Z" fill="#00005B"/>
<path d="M17.9038 27.09H11.0354L9.63822 31.745C9.59901 31.9119 9.44922 32.0267 9.28159 32.0185H5.80283C5.60425 32.0185 5.53498 31.9071 5.59485 31.6842L11.5412 14.4053C11.6005 14.223 11.66 14.0153 11.7198 13.7822C11.7975 13.3767 11.8371 12.9646 11.8383 12.5513C11.8241 12.4483 11.8943 12.3531 11.995 12.3385C12.0121 12.336 12.0294 12.3361 12.0466 12.3385H16.7743C16.9124 12.3385 16.9917 12.3895 17.0121 12.4906L23.7608 31.7146C23.8204 31.9175 23.7611 32.0188 23.5826 32.0185H19.7175C19.5802 32.0342 19.453 31.9431 19.4204 31.8058L17.9038 27.09ZM12.1058 23.8556H17.0717L14.5887 15.6254L12.1058 23.8556Z" fill="#9999FF"/>
<path d="M37.8962 17.4884L37.824 28.6237C37.824 29.1304 37.829 29.5812 37.839 29.9762C37.8488 30.3713 37.8687 30.7157 37.8986 31.0095C37.9284 31.3034 37.9531 31.5515 37.9728 31.7542C37.9921 31.9164 37.923 31.9972 37.7645 31.9972L34.7025 32.0375C34.5509 32.0538 34.4064 31.9677 34.3458 31.8247C34.3032 31.6696 34.2685 31.5124 34.2418 31.3536C34.2135 31.1982 34.1985 31.0405 34.197 30.8826C33.6435 31.4528 32.9718 31.8886 32.2313 32.1576C31.5625 32.3438 30.8731 32.4408 30.18 32.4463C29.4635 32.447 28.7515 32.3316 28.0705 32.1041C27.4741 31.935 26.9282 31.6171 26.4814 31.1793C26.007 30.5853 25.6533 29.9006 25.4408 29.1653C25.1741 28.2955 25.0486 27.3869 25.0693 26.4756V17.5102C25.0528 17.3927 25.1327 17.2838 25.2476 17.267C25.2675 17.2642 25.2876 17.2642 25.3074 17.2671H28.8042C28.9192 17.2504 29.0256 17.3321 29.042 17.4496C29.0448 17.4698 29.0448 17.4902 29.042 17.5102V25.9893C29.0031 26.6853 29.1914 27.3748 29.5771 27.9496C30.0637 28.5191 30.7712 28.8401 31.5107 28.827C31.9888 28.7787 32.4552 28.6464 32.8892 28.4359C33.2654 28.2842 33.6164 28.074 33.9298 27.8129V17.4799C33.9298 17.3383 34.019 17.2674 34.1974 17.2671L37.6882 17.2757C37.7889 17.2612 37.8821 17.333 37.8962 17.436C37.8986 17.4534 37.8986 17.4711 37.8962 17.4884Z" fill="#9999FF"/>
</g>
<defs>
<clipPath id="clip0_87_603">
<rect width="45" height="46" fill="white" transform="translate(0.14624)"/>
</clipPath>
</defs>
</svg>
