<svg width="47" height="46" viewBox="0 0 47 46" fill="none" xmlns="http://www.w3.org/2000/svg">
<g clip-path="url(#clip0_87_580)">
<path d="M8.2921 0.574951H38.0005C42.5046 0.574951 46.1462 4.21659 46.1462 8.72081V37.2792C46.1462 41.7833 42.5046 45.425 38.0004 45.425H8.2921C3.78788 45.425 0.14624 41.7833 0.14624 37.2791V8.72081C0.14624 4.21659 3.78788 0.574951 8.2921 0.574951Z" fill="#001834"/>
<path d="M10.4962 32.0274V12.3049C10.4962 12.1707 10.5537 12.094 10.6879 12.094C11.0137 12.094 11.3204 12.094 11.7612 12.0749C12.2212 12.0557 12.7004 12.0557 13.2179 12.0365C13.7354 12.0173 14.2912 12.0174 14.8854 11.9981C15.4795 11.979 16.0545 11.979 16.6295 11.979C18.2012 11.979 19.5045 12.1706 20.5779 12.5731C21.5362 12.899 22.4179 13.4356 23.1462 14.1448C23.7596 14.7581 24.2387 15.5056 24.5454 16.3298C24.8329 17.1348 24.9862 17.9589 24.9862 18.8214C24.9862 20.4698 24.6029 21.8306 23.8362 22.9039C23.0696 23.9773 21.9962 24.7823 20.7504 25.2423C19.447 25.7214 18.0095 25.8939 16.4379 25.8939C15.9779 25.8939 15.6712 25.8939 15.4795 25.8748C15.2879 25.8556 15.0195 25.8556 14.6554 25.8556V32.0081C14.6745 32.1423 14.5787 32.2573 14.4445 32.2765C14.4254 32.2765 14.4062 32.2765 14.3679 32.2765H10.7262C10.5729 32.2765 10.4962 32.1999 10.4962 32.0274ZM14.6746 15.7932V22.2332C14.943 22.2524 15.1921 22.2716 15.4221 22.2716H16.438C17.7615 22.2716 19.29 21.9606 20.2137 20.9108C21.0088 20.0074 21.011 18.2157 20.3671 17.2308C19.6027 16.0617 18.0741 15.723 16.7637 15.755C16.2654 15.755 15.8246 15.755 15.4604 15.7741C15.0771 15.7549 14.8087 15.774 14.6746 15.7932Z" fill="#00A9FF"/>
<path d="M36.9462 21.0641C36.3712 20.7574 35.7579 20.5466 35.1062 20.4124C34.3971 20.2591 33.6879 20.1633 32.9596 20.1633C32.5762 20.1441 32.1737 20.2016 31.8096 20.2974C31.5605 20.3549 31.3496 20.4891 31.2155 20.6808C31.1196 20.8341 31.0621 21.0258 31.0621 21.1983C31.0621 21.3708 31.1387 21.5433 31.2537 21.6966C31.4262 21.9075 31.6562 22.08 31.9054 22.2141C32.3462 22.4441 32.8062 22.655 33.2662 22.8466C34.3012 23.1916 35.2979 23.6708 36.2179 24.2458C36.8504 24.6483 37.3679 25.1849 37.732 25.8366C38.0386 26.45 38.192 27.1208 38.1729 27.8108C38.192 28.7116 37.9237 29.6124 37.4254 30.3599C36.8887 31.1266 36.1412 31.7208 35.2787 32.0658C34.3396 32.4683 33.1896 32.6791 31.8096 32.6791C30.928 32.6791 30.0655 32.6025 29.203 32.43C28.5321 32.315 27.8613 32.1041 27.248 31.8166C27.1138 31.74 27.018 31.6058 27.0371 31.4525V28.1175C27.0371 28.06 27.0562 27.9834 27.1137 27.945C27.1712 27.9066 27.2287 27.9259 27.2862 27.9641C28.0337 28.405 28.8196 28.7116 29.6629 28.9033C30.3912 29.0949 31.1579 29.1908 31.9245 29.1908C32.6529 29.1908 33.1704 29.0949 33.5154 28.9224C33.822 28.7883 34.0329 28.4624 34.0329 28.1174C34.0329 27.8491 33.8795 27.5999 33.5729 27.3508C33.2662 27.1016 32.6337 26.8141 31.6945 26.4499C30.717 26.1049 29.8161 25.6449 28.9729 25.0699C28.3787 24.6483 27.8804 24.0924 27.5162 23.4408C27.2096 22.8274 27.0562 22.1566 27.0754 21.4858C27.0754 20.6616 27.3054 19.8758 27.727 19.1666C28.2061 18.4 28.9154 17.7866 29.7395 17.4033C30.6404 16.9433 31.7711 16.7324 33.132 16.7324C33.9179 16.7324 34.7229 16.7899 35.5086 16.9049C36.0836 16.9816 36.6395 17.1349 37.157 17.3458C37.2336 17.3649 37.3104 17.4416 37.3486 17.5183C37.3678 17.5949 37.387 17.6716 37.387 17.7483V20.8724C37.387 20.9491 37.3486 21.0258 37.2911 21.0641C37.1187 21.1024 37.0229 21.1024 36.9462 21.0641Z" fill="#00A9FF"/>
</g>
<defs>
<clipPath id="clip0_87_580">
<rect width="46" height="46" fill="white" transform="translate(0.14624)"/>
</clipPath>
</defs>
</svg>
