<svg width="47" height="46" viewBox="0 0 47 46" fill="none" xmlns="http://www.w3.org/2000/svg">
<g clip-path="url(#clip0_87_575)">
<path d="M19.1539 2.348C18.9768 2.0791 18.6765 1.91711 18.3546 1.91675H1.1046C0.575334 1.91675 0.14624 2.34584 0.14624 2.87511V43.1251C0.14615 43.5806 0.466623 43.9731 0.912877 44.0642C0.975947 44.0769 1.04019 44.0834 1.10451 44.0834C1.4868 44.0847 1.83324 43.8588 1.98615 43.5084L19.2362 3.25838C19.3646 2.96055 19.3336 2.61798 19.1539 2.348Z" fill="#F44336"/>
<path d="M24.0336 16.8897C23.887 16.5285 23.5362 16.292 23.1462 16.2917C22.7605 16.2917 22.4123 16.5227 22.2626 16.8782L14.596 35.0866C14.3906 35.5745 14.6196 36.1363 15.1074 36.3417C15.2252 36.3913 15.3518 36.4168 15.4795 36.4168H22.4811L25.1242 43.4625C25.2648 43.836 25.6221 44.0835 26.0212 44.0835H33.6879C34.2172 44.0831 34.646 43.6538 34.6456 43.1246C34.6455 43.0012 34.6216 42.8791 34.5753 42.7648L24.0336 16.8897Z" fill="#F44336"/>
<path d="M45.1879 1.91675H27.9379C27.4086 1.91487 26.9781 2.34243 26.9762 2.8717C26.9757 3.00476 27.003 3.13647 27.0561 3.25839L44.3061 43.5084C44.4591 43.8588 44.8056 44.0847 45.1878 44.0834C45.2521 44.0833 45.3163 44.0769 45.3794 44.0643C45.8257 43.9732 46.1461 43.5805 46.1461 43.1251V2.87512C46.1462 2.34585 45.7171 1.91675 45.1879 1.91675Z" fill="#F44336"/>
</g>
<defs>
<clipPath id="clip0_87_575">
<rect width="46" height="46" fill="white" transform="translate(0.14624)"/>
</clipPath>
</defs>
</svg>
