<svg width="47" height="46" viewBox="0 0 47 46" fill="none" xmlns="http://www.w3.org/2000/svg">
<g clip-path="url(#clip0_87_613)">
<path d="M8.29203 0.574951H38.0004C42.4992 0.574951 46.1462 4.222 46.1462 8.72074V37.2791C46.1462 41.7779 42.4992 45.425 38.0004 45.425H8.29203C3.79329 45.4249 0.14624 41.7779 0.14624 37.2791V8.72074C0.14624 4.22191 3.79329 0.574951 8.29203 0.574951Z" fill="#00005B"/>
<path d="M18.6258 27.4081H11.4974L10.0471 31.9221C10.0064 32.0915 9.85096 32.2081 9.67679 32.1998H6.06639C5.86052 32.1998 5.78848 32.0866 5.85037 31.8603L12.022 14.1594C12.0838 13.9742 12.1455 13.7932 12.2072 13.5565C12.288 13.1448 12.3293 12.7263 12.3306 12.3068C12.3158 12.2023 12.3883 12.1056 12.4928 12.0908C12.5107 12.0882 12.5287 12.0882 12.5466 12.0908H17.4531C17.5968 12.0908 17.6791 12.1422 17.7001 12.2451L24.7049 31.8912C24.7666 32.097 24.7049 32.2 24.5197 32.1998H20.5081C20.3655 32.2156 20.2334 32.1232 20.1996 31.9838L18.6258 27.4081ZM15.0461 15.6097H15.0152L12.6083 23.602H17.484L15.0461 15.6097Z" fill="#9999FF"/>
<path d="M36.0609 25.6511H29.9818C30.0563 26.2526 30.2561 26.8318 30.5682 27.3513C30.9133 27.8657 31.4013 28.2679 31.9722 28.5085C32.7459 28.8432 33.5827 29.0072 34.4255 28.9893C35.0942 28.9764 35.7604 28.9033 36.4159 28.7707C37.0022 28.6916 37.5768 28.5418 38.1272 28.3247C38.2299 28.2428 38.2815 28.2939 38.2815 28.479V31.4105C38.2866 31.4904 38.2706 31.5702 38.2352 31.642C38.1999 31.6981 38.1523 31.7456 38.0963 31.7809C37.4859 32.0512 36.8434 32.2426 36.1845 32.3504C35.2894 32.5186 34.3796 32.5961 33.469 32.5819C32.008 32.5819 30.784 32.3556 29.7968 31.903C28.8636 31.4919 28.0394 30.8685 27.3899 30.0824C26.7832 29.3417 26.3319 28.4864 26.063 27.5675C25.7967 26.6605 25.6616 25.72 25.6618 24.7748C25.659 23.7427 25.8205 22.7166 26.1401 21.7353C26.4481 20.778 26.935 19.888 27.5751 19.1123C28.9856 17.4032 30.9269 16.6909 33.0987 16.6909C34.9701 16.6909 36.8898 17.3107 38.0977 18.8037C38.6032 19.4561 38.9897 20.1925 39.2395 20.9792C39.4826 21.7373 39.6075 22.5283 39.6098 23.3245C39.6098 23.7772 39.5943 24.1886 39.5634 24.5588C39.5326 24.929 39.5069 25.1965 39.4864 25.3611C39.4698 25.5019 39.3504 25.608 39.2086 25.608C39.0852 25.608 38.8743 25.6235 38.5761 25.6543C38.2776 25.6851 37.9074 25.7057 37.4653 25.716C37.0223 25.7264 36.5547 25.6511 36.0609 25.6511ZM29.9818 22.84H34.0243C34.518 22.84 34.8832 22.8348 35.1198 22.8245C35.278 22.8087 35.4309 22.758 35.5673 22.6762V22.491C35.5611 22.2497 35.5196 22.0105 35.4439 21.7813C35.1017 20.6992 34.0785 19.9792 32.9444 20.0224C31.8833 19.9583 30.8846 20.5272 30.3986 21.4727C30.187 21.9031 30.0463 22.3648 29.9818 22.84Z" fill="#9999FF"/>
</g>
<defs>
<clipPath id="clip0_87_613">
<rect width="46" height="46" fill="white" transform="translate(0.14624)"/>
</clipPath>
</defs>
</svg>
