<svg width="46" height="46" viewBox="0 0 46 46" fill="none" xmlns="http://www.w3.org/2000/svg">
<g clip-path="url(#clip0_87_593)">
<path d="M8.11499 0.574951H37.1775C41.5838 0.574951 45.1462 4.21659 45.1462 8.72079V37.2791C45.1462 41.7833 41.5838 45.425 37.1775 45.425H8.11499C3.70871 45.425 0.14624 41.7833 0.14624 37.2791V8.72079C0.14624 4.21659 3.70871 0.574951 8.11499 0.574951Z" fill="#00005B"/>
<path d="M16.8338 11.9792C18.3712 11.9792 19.6462 12.1709 20.6962 12.5734C22.4594 13.2492 23.9095 14.495 24.5776 16.3301C24.8588 17.1351 25.0088 17.9593 25.0088 18.8218C25.0088 21.6477 23.5502 24.2291 20.8651 25.2426C19.5901 25.7218 18.1839 25.8943 16.6463 25.8943C16.1963 25.8943 15.8963 25.8943 15.7088 25.8751C15.5214 25.856 15.2588 25.856 14.9026 25.856V32.0085C14.9213 32.1426 14.8277 32.2576 14.6964 32.2769C14.6776 32.2769 14.6588 32.2769 14.6214 32.2769H11.0589C10.9089 32.2769 10.8339 32.2002 10.8339 32.0277V12.305C10.8339 12.1709 10.8902 12.0942 11.0214 12.0942C11.3402 12.0942 11.6401 12.0942 12.0714 12.075L16.8338 11.9792ZM14.9213 15.7934V22.2334C15.1838 22.2525 15.4275 22.2718 15.6525 22.2718H16.6462C17.3775 22.2718 18.1087 22.1568 18.8024 21.9268C20.1452 21.4816 20.9212 20.3649 20.9212 18.9368C20.9212 17.7408 20.3028 16.5747 19.1775 16.1385C18.4838 15.851 17.7338 15.736 16.965 15.7551C16.4775 15.7551 16.0462 15.7551 15.69 15.7742C15.315 15.755 15.0525 15.7742 14.9213 15.7934Z" fill="#9999FF"/>
<path d="M27.6338 16.905H30.915C31.1025 16.905 31.2525 17.0392 31.3088 17.2117C31.365 17.365 31.4025 17.5183 31.4213 17.6908C31.4588 17.8824 31.4962 18.0933 31.515 18.2849C31.5338 18.4958 31.5526 18.7258 31.5526 18.9749C32.1151 18.3041 32.79 17.7482 33.5588 17.3266C34.4213 16.8282 35.4151 16.5791 36.4088 16.5791C36.5401 16.56 36.6526 16.6557 36.6714 16.79V16.8666V20.6041C36.6714 20.7574 36.5776 20.8149 36.3714 20.8149C35.6964 20.7958 35.0026 20.8533 34.3464 21.0066C33.8026 21.1216 33.2776 21.2941 32.7713 21.5241C32.4151 21.6966 32.0776 21.9265 31.8151 22.2332V32.0082C31.8151 32.1998 31.7401 32.2766 31.5714 32.2766H27.8776C27.7276 32.2957 27.5964 32.1999 27.5776 32.0466C27.5776 32.0274 27.5776 31.9891 27.5776 31.9699V21.3516C27.5776 20.8916 27.5776 20.4124 27.5589 19.9141C27.5402 19.4158 27.5402 18.9174 27.5214 18.4191C27.5214 17.9783 27.4839 17.5567 27.4464 17.1158C27.4277 17.0199 27.484 16.9242 27.5776 16.905C27.5776 16.8858 27.615 16.8858 27.6338 16.905Z" fill="#9999FF"/>
</g>
<defs>
<clipPath id="clip0_87_593">
<rect width="45" height="46" fill="white" transform="translate(0.14624)"/>
</clipPath>
</defs>
</svg>
