<svg width="180" height="46" viewBox="0 0 180 46" fill="none" xmlns="http://www.w3.org/2000/svg">
<path d="M105.125 25.3C104.044 24.8528 103.175 24.1926 102.539 23.3194C101.882 22.4463 101.543 21.4028 101.522 20.1676H106.376C106.44 20.8704 106.694 21.4028 107.097 21.7648C107.5 22.1268 108.03 22.3185 108.687 22.3185C109.344 22.3185 109.895 22.1694 110.277 21.85C110.658 21.5305 110.87 21.1046 110.87 20.5509C110.87 19.9972 110.722 19.6991 110.404 19.4009C110.086 19.1028 109.704 18.8472 109.259 18.6555C108.814 18.4639 108.157 18.2296 107.33 17.9954C106.122 17.612 105.147 17.25 104.383 16.8667C103.62 16.4833 102.963 15.9296 102.412 15.2055C101.861 14.4815 101.585 13.5231 101.585 12.3518C101.585 10.6055 102.221 9.24258 103.472 8.24166C104.723 7.26203 106.376 6.75092 108.39 6.75092C110.404 6.75092 112.1 7.24073 113.372 8.24166C114.623 9.22129 115.301 10.6055 115.386 12.3731H110.468C110.425 11.7768 110.213 11.287 109.81 10.9463C109.408 10.6055 108.878 10.4352 108.242 10.4352C107.606 10.4352 107.245 10.5842 106.906 10.8824C106.567 11.1805 106.397 11.6065 106.397 12.1602C106.397 12.7139 106.673 13.2463 107.245 13.587C107.818 13.9278 108.708 14.2898 109.916 14.6944C111.125 15.0991 112.1 15.5037 112.863 15.8657C113.626 16.2491 114.262 16.7815 114.813 17.5055C115.364 18.2296 115.64 19.1454 115.64 20.2528C115.64 21.3602 115.365 22.2972 114.835 23.1704C114.283 24.0435 113.499 24.7463 112.481 25.2574C111.443 25.7685 110.234 26.0241 108.835 26.0241C107.436 26.0241 106.249 25.8111 105.168 25.3639L105.125 25.3Z" fill="white"/>
<path d="M131.921 16.0361C131.433 16.9305 130.67 17.6546 129.631 18.2083C128.593 18.762 127.321 19.0389 125.794 19.0389H122.975V25.7898H118.417V7.00647H125.794C127.278 7.00647 128.55 7.26202 129.568 7.77314C130.606 8.28425 131.37 9.00832 131.878 9.92406C132.387 10.8398 132.642 11.8833 132.642 13.0546C132.642 14.2259 132.387 15.1417 131.9 16.0361H131.921ZM127.384 14.7796C127.808 14.375 128.02 13.8 128.02 13.0333C128.02 12.2667 127.808 11.713 127.384 11.287C126.96 10.8824 126.303 10.6694 125.434 10.6694H122.954V15.3759H125.434C126.303 15.3759 126.96 15.163 127.384 14.7583V14.7796Z" fill="white"/>
<path d="M139.044 24.7463C137.581 23.9157 136.415 22.787 135.546 21.3176C134.677 19.8481 134.253 18.187 134.253 16.3555C134.253 14.5241 134.677 12.863 135.546 11.4148C136.415 9.94536 137.56 8.81666 139.044 7.9861C140.506 7.15554 142.118 6.75092 143.877 6.75092C145.637 6.75092 147.248 7.15554 148.71 7.9861C150.173 8.81666 151.339 9.94536 152.166 11.4148C153.014 12.8842 153.438 14.5241 153.438 16.3555C153.438 18.187 153.014 19.8481 152.166 21.3176C151.318 22.787 150.152 23.937 148.71 24.7463C147.248 25.5768 145.658 25.9815 143.898 25.9815C142.139 25.9815 140.528 25.5768 139.065 24.7463H139.044ZM147.46 20.2954C148.35 19.2944 148.795 17.9741 148.795 16.3342C148.795 14.6944 148.35 13.3528 147.46 12.3518C146.569 11.3722 145.361 10.8611 143.877 10.8611C142.393 10.8611 141.164 11.3509 140.273 12.3305C139.383 13.3102 138.938 14.6305 138.938 16.313C138.938 17.9954 139.383 19.2944 140.273 20.2954C141.164 21.275 142.372 21.7861 143.877 21.7861C145.382 21.7861 146.569 21.2963 147.46 20.2954Z" fill="white"/>
<path d="M169.422 7.00647V10.6694H164.461V25.7898H159.903V10.6694H154.943V7.00647H169.401H169.422Z" fill="white"/>
<path d="M48.1639 24.6185C46.7012 23.788 45.5353 22.6593 44.6661 21.1898C43.797 19.7204 43.373 18.0592 43.373 16.2278C43.373 14.3963 43.797 12.7352 44.6661 11.287C45.5353 9.81758 46.68 8.68888 48.1639 7.85832C49.6267 7.02777 51.2378 6.62314 52.9973 6.62314C54.7568 6.62314 56.3679 7.02777 57.8306 7.85832C59.2934 8.68888 60.4593 9.81758 61.2861 11.287C62.134 12.7565 62.558 14.3963 62.558 16.2278C62.558 18.0592 62.134 19.7204 61.2861 21.1898C60.4381 22.6593 59.2722 23.8092 57.8306 24.6185C56.3679 25.4491 54.778 25.8537 53.0185 25.8537C51.259 25.8537 49.6479 25.4491 48.1851 24.6185H48.1639ZM56.5799 20.1889C57.4703 19.188 57.9154 17.8676 57.9154 16.2278C57.9154 14.588 57.4703 13.2463 56.5799 12.2454C55.6896 11.2657 54.4812 10.7546 52.9973 10.7546C51.5134 10.7546 50.2838 11.2444 49.3935 12.2241C48.5031 13.2037 48.0579 14.5241 48.0579 16.2065C48.0579 17.8889 48.5031 19.188 49.3935 20.1889C50.2838 21.1685 51.4922 21.6796 52.9973 21.6796C54.5024 21.6796 55.6896 21.1898 56.5799 20.1889Z" fill="#FA3C5E"/>
<path d="M81.8278 25.662H77.27L69.6596 14.0768V25.662H65.1019V6.87869H69.6596L77.27 18.5278V6.87869H81.8278V25.662Z" fill="#FA3C5E"/>
<path d="M89.6714 10.563V14.3537H95.7767V17.8889H89.6714V21.9991H96.5611V25.662H85.1136V6.87869H96.5611V10.5417H89.6714V10.563Z" fill="#FA3C5E"/>
<path d="M48.1639 24.6185C46.7012 23.788 45.5353 22.6593 44.6661 21.1898C43.797 19.7204 43.373 18.0592 43.373 16.2278C43.373 14.3963 43.797 12.7352 44.6661 11.287C45.5353 9.81758 46.68 8.68888 48.1639 7.85832C49.6267 7.02777 51.2378 6.62314 52.9973 6.62314C54.7568 6.62314 56.3679 7.02777 57.8306 7.85832C59.2934 8.68888 60.4593 9.81758 61.2861 11.287C62.134 12.7565 62.558 14.3963 62.558 16.2278C62.558 18.0592 62.134 19.7204 61.2861 21.1898C60.4381 22.6593 59.2722 23.8092 57.8306 24.6185C56.3679 25.4491 54.778 25.8537 53.0185 25.8537C51.259 25.8537 49.6479 25.4491 48.1851 24.6185H48.1639ZM56.5799 20.1889C57.4703 19.188 57.9154 17.8676 57.9154 16.2278C57.9154 14.588 57.4703 13.2463 56.5799 12.2454C55.6896 11.2657 54.4812 10.7546 52.9973 10.7546C51.5134 10.7546 50.2838 11.2444 49.3935 12.2241C48.5031 13.2037 48.0579 14.5241 48.0579 16.2065C48.0579 17.8889 48.5031 19.188 49.3935 20.1889C50.2838 21.1685 51.4922 21.6796 52.9973 21.6796C54.5024 21.6796 55.6896 21.1898 56.5799 20.1889Z" fill="url(#paint0_linear_517_1860)"/>
<path d="M81.8278 25.662H77.27L69.6596 14.0768V25.662H65.1019V6.87869H69.6596L77.27 18.5278V6.87869H81.8278V25.662Z" fill="url(#paint1_linear_517_1860)"/>
<path d="M89.6714 10.563V14.3537H95.7767V17.8889H89.6714V21.9991H96.5611V25.662H85.1136V6.87869H96.5611V10.5417H89.6714V10.563Z" fill="url(#paint2_linear_517_1860)"/>
<path d="M46.2535 38.135C45.6085 38.135 45.064 37.9925 44.62 37.7075C44.176 37.4195 43.84 37.022 43.612 36.515C43.384 36.008 43.27 35.423 43.27 34.76C43.27 34.097 43.384 33.512 43.612 33.005C43.84 32.498 44.176 32.102 44.62 31.817C45.064 31.529 45.6085 31.385 46.2535 31.385C47.0065 31.385 47.6215 31.5785 48.0985 31.9655C48.5755 32.3495 48.9025 32.8655 49.0795 33.5135L48.4045 33.689C48.2665 33.176 48.019 32.7695 47.662 32.4695C47.305 32.1695 46.8355 32.0195 46.2535 32.0195C45.7465 32.0195 45.325 32.135 44.989 32.366C44.653 32.597 44.3995 32.9195 44.2285 33.3335C44.0605 33.7445 43.9735 34.22 43.9675 34.76C43.9645 35.3 44.047 35.7755 44.215 36.1865C44.386 36.5975 44.641 36.92 44.98 37.154C45.322 37.385 45.7465 37.5005 46.2535 37.5005C46.8355 37.5005 47.305 37.3505 47.662 37.0505C48.019 36.7475 48.2665 36.341 48.4045 35.831L49.0795 36.0065C48.9025 36.6545 48.5755 37.172 48.0985 37.559C47.6215 37.943 47.0065 38.135 46.2535 38.135ZM50.0724 38V31.52H52.5744C52.6374 31.52 52.7079 31.523 52.7859 31.529C52.8669 31.532 52.9479 31.541 53.0289 31.556C53.3679 31.607 53.6544 31.7255 53.8884 31.9115C54.1254 32.0945 54.3039 32.3255 54.4239 32.6045C54.5469 32.8835 54.6084 33.1925 54.6084 33.5315C54.6084 34.0205 54.4794 34.445 54.2214 34.805C53.9634 35.165 53.5944 35.3915 53.1144 35.4845L52.8849 35.5385H50.7339V38H50.0724ZM53.9964 38L52.7184 35.363L53.3529 35.12L54.7569 38H53.9964ZM50.7339 34.9085H52.5564C52.6104 34.9085 52.6734 34.9055 52.7454 34.8995C52.8174 34.8935 52.8879 34.883 52.9569 34.868C53.1789 34.82 53.3604 34.7285 53.5014 34.5935C53.6454 34.4585 53.7519 34.298 53.8209 34.112C53.8929 33.926 53.9289 33.7325 53.9289 33.5315C53.9289 33.3305 53.8929 33.137 53.8209 32.951C53.7519 32.762 53.6454 32.6 53.5014 32.465C53.3604 32.33 53.1789 32.2385 52.9569 32.1905C52.8879 32.1755 52.8174 32.1665 52.7454 32.1635C52.6734 32.1575 52.6104 32.1545 52.5564 32.1545H50.7339V34.9085ZM55.7501 38V31.52H59.8001V32.1545H56.4116V34.3955H59.2601V35.03H56.4116V37.3655H59.8001V38H55.7501ZM60.4329 38L62.6649 31.52H63.5424L65.7744 38H65.0859L62.9664 31.889H63.2274L61.1214 38H60.4329ZM61.4274 36.4295V35.8085H64.7754V36.4295H61.4274ZM67.7744 38V32.1545H65.5109V31.52H70.6994V32.1545H68.4359V38H67.7744ZM71.511 38V31.52H72.1725V38H71.511ZM75.1686 38L72.9366 31.52H73.6251L75.6006 37.2485L77.5896 31.52H78.2781L76.0461 38H75.1686ZM78.9532 38V31.52H83.0032V32.1545H79.6147V34.3955H82.4632V35.03H79.6147V37.3655H83.0032V38H78.9532ZM88.2863 38.135C87.8123 38.135 87.3848 38.0525 87.0038 37.8875C86.6258 37.7225 86.3138 37.487 86.0678 37.181C85.8248 36.872 85.6703 36.506 85.6043 36.083L86.7293 35.912C86.8253 36.296 87.0218 36.593 87.3188 36.803C87.6188 37.013 87.9638 37.118 88.3538 37.118C88.5848 37.118 88.8023 37.082 89.0063 37.01C89.2103 36.938 89.3753 36.833 89.5013 36.695C89.6303 36.557 89.6948 36.3875 89.6948 36.1865C89.6948 36.0965 89.6798 36.014 89.6498 35.939C89.6198 35.861 89.5748 35.792 89.5148 35.732C89.4578 35.672 89.3828 35.618 89.2898 35.57C89.1998 35.519 89.0948 35.4755 88.9748 35.4395L87.3008 34.9445C87.1568 34.9025 87.0008 34.847 86.8328 34.778C86.6678 34.706 86.5103 34.6085 86.3603 34.4855C86.2133 34.3595 86.0918 34.2005 85.9958 34.0085C85.9028 33.8135 85.8563 33.5735 85.8563 33.2885C85.8563 32.8715 85.9613 32.522 86.1713 32.24C86.3843 31.955 86.6693 31.742 87.0263 31.601C87.3863 31.46 87.7853 31.391 88.2233 31.394C88.6673 31.397 89.0633 31.4735 89.4113 31.6235C89.7593 31.7705 90.0503 31.985 90.2843 32.267C90.5183 32.549 90.6833 32.8895 90.7793 33.2885L89.6138 33.491C89.5658 33.263 89.4728 33.0695 89.3348 32.9105C89.1998 32.7485 89.0333 32.6255 88.8353 32.5415C88.6403 32.4575 88.4318 32.4125 88.2098 32.4065C87.9938 32.4035 87.7928 32.4365 87.6068 32.5055C87.4238 32.5715 87.2753 32.6675 87.1613 32.7935C87.0503 32.9195 86.9948 33.0665 86.9948 33.2345C86.9948 33.3935 87.0428 33.524 87.1388 33.626C87.2348 33.725 87.3533 33.8045 87.4943 33.8645C87.6383 33.9215 87.7838 33.9695 87.9308 34.0085L89.0918 34.3325C89.2508 34.3745 89.4293 34.4315 89.6273 34.5035C89.8253 34.5755 90.0158 34.676 90.1988 34.805C90.3818 34.934 90.5318 35.1035 90.6488 35.3135C90.7688 35.5235 90.8288 35.7905 90.8288 36.1145C90.8288 36.4505 90.7583 36.746 90.6173 37.001C90.4793 37.253 90.2918 37.463 90.0548 37.631C89.8178 37.799 89.5463 37.925 89.2403 38.009C88.9373 38.093 88.6193 38.135 88.2863 38.135ZM93.3599 38V32.537H91.2629V31.52H96.5414V32.537H94.4444V38H93.3599ZM99.8709 38.135C99.3549 38.135 98.9004 38.03 98.5074 37.82C98.1174 37.61 97.8114 37.3145 97.5894 36.9335C97.3704 36.5525 97.2609 36.1055 97.2609 35.5925V31.529L98.3589 31.52V35.5655C98.3589 35.8085 98.3994 36.026 98.4804 36.218C98.5644 36.41 98.6769 36.5735 98.8179 36.7085C98.9589 36.8405 99.1209 36.941 99.3039 37.01C99.4869 37.079 99.6759 37.1135 99.8709 37.1135C100.072 37.1135 100.262 37.079 100.442 37.01C100.625 36.938 100.787 36.836 100.928 36.704C101.069 36.569 101.18 36.4055 101.261 36.2135C101.342 36.0215 101.383 35.8055 101.383 35.5655V31.52H102.481V35.5925C102.481 36.1055 102.37 36.5525 102.148 36.9335C101.929 37.3145 101.623 37.61 101.23 37.82C100.84 38.03 100.387 38.135 99.8709 38.135ZM103.738 38V31.52H105.804C105.858 31.52 105.964 31.5215 106.123 31.5245C106.285 31.5275 106.441 31.538 106.591 31.556C107.104 31.622 107.538 31.805 107.892 32.105C108.249 32.402 108.519 32.7815 108.702 33.2435C108.885 33.7055 108.976 34.211 108.976 34.76C108.976 35.309 108.885 35.8145 108.702 36.2765C108.519 36.7385 108.249 37.1195 107.892 37.4195C107.538 37.7165 107.104 37.898 106.591 37.964C106.444 37.982 106.29 37.9925 106.128 37.9955C105.966 37.9985 105.858 38 105.804 38H103.738ZM104.841 36.9785H105.804C105.894 36.9785 106.008 36.9755 106.146 36.9695C106.287 36.9635 106.411 36.95 106.519 36.929C106.825 36.872 107.074 36.7355 107.266 36.5195C107.458 36.3035 107.599 36.041 107.689 35.732C107.782 35.423 107.829 35.099 107.829 34.76C107.829 34.409 107.782 34.079 107.689 33.77C107.596 33.461 107.452 33.2015 107.257 32.9915C107.065 32.7815 106.819 32.648 106.519 32.591C106.411 32.567 106.287 32.5535 106.146 32.5505C106.008 32.5445 105.894 32.5415 105.804 32.5415H104.841V36.9785ZM110.13 38V31.52H111.215V38H110.13ZM115.303 38.135C114.655 38.135 114.1 37.994 113.638 37.712C113.176 37.427 112.821 37.031 112.572 36.524C112.326 36.017 112.203 35.429 112.203 34.76C112.203 34.091 112.326 33.503 112.572 32.996C112.821 32.489 113.176 32.0945 113.638 31.8125C114.1 31.5275 114.655 31.385 115.303 31.385C115.951 31.385 116.506 31.5275 116.968 31.8125C117.433 32.0945 117.789 32.489 118.035 32.996C118.284 33.503 118.408 34.091 118.408 34.76C118.408 35.429 118.284 36.017 118.035 36.524C117.789 37.031 117.433 37.427 116.968 37.712C116.506 37.994 115.951 38.135 115.303 38.135ZM115.303 37.1135C115.738 37.1165 116.1 37.0205 116.388 36.8255C116.679 36.6305 116.896 36.356 117.04 36.002C117.187 35.648 117.261 35.234 117.261 34.76C117.261 34.286 117.187 33.875 117.04 33.527C116.896 33.176 116.679 32.903 116.388 32.708C116.1 32.513 115.738 32.4125 115.303 32.4065C114.868 32.4035 114.507 32.4995 114.219 32.6945C113.931 32.8895 113.713 33.164 113.566 33.518C113.422 33.872 113.35 34.286 113.35 34.76C113.35 35.234 113.422 35.6465 113.566 35.9975C113.71 36.3455 113.926 36.617 114.214 36.812C114.505 37.007 114.868 37.1075 115.303 37.1135Z" fill="white"/>
<path d="M28.3642 37.9074C35.2835 37.9074 40.8928 32.2724 40.8928 25.3213C40.8928 18.3702 35.2835 12.7352 28.3642 12.7352C21.4449 12.7352 15.8356 18.3702 15.8356 25.3213C15.8356 32.2724 21.4449 37.9074 28.3642 37.9074Z" fill="white"/>
<path d="M22.4709 33.2009C29.3902 33.2009 34.9994 27.5659 34.9994 20.6148C34.9994 13.6637 29.3902 8.02872 22.4709 8.02872C15.5515 8.02872 9.94232 13.6637 9.94232 20.6148C9.94232 27.5659 15.5515 33.2009 22.4709 33.2009Z" stroke="url(#paint3_linear_517_1860)" stroke-width="3" stroke-miterlimit="10"/>
<defs>
<linearGradient id="paint0_linear_517_1860" x1="43.3942" y1="16.2491" x2="96.5823" y2="16.2491" gradientUnits="userSpaceOnUse">
<stop stop-color="#70C48F"/>
<stop offset="0.2" stop-color="#5BC3A1"/>
<stop offset="0.7" stop-color="#27C2D0"/>
<stop offset="1" stop-color="#00C2F3"/>
</linearGradient>
<linearGradient id="paint1_linear_517_1860" x1="43.3942" y1="16.2491" x2="96.5823" y2="16.2491" gradientUnits="userSpaceOnUse">
<stop stop-color="#70C48F"/>
<stop offset="0.2" stop-color="#5BC3A1"/>
<stop offset="0.7" stop-color="#27C2D0"/>
<stop offset="1" stop-color="#00C2F3"/>
</linearGradient>
<linearGradient id="paint2_linear_517_1860" x1="43.3942" y1="16.2491" x2="96.5823" y2="16.2491" gradientUnits="userSpaceOnUse">
<stop stop-color="#70C48F"/>
<stop offset="0.2" stop-color="#5BC3A1"/>
<stop offset="0.7" stop-color="#27C2D0"/>
<stop offset="1" stop-color="#00C2F3"/>
</linearGradient>
<linearGradient id="paint3_linear_517_1860" x1="8.60679" y1="20.6148" x2="36.3562" y2="20.6148" gradientUnits="userSpaceOnUse">
<stop stop-color="#70C48F"/>
<stop offset="0.2" stop-color="#5BC3A1"/>
<stop offset="0.7" stop-color="#27C2D0"/>
<stop offset="1" stop-color="#00C2F3"/>
</linearGradient>
</defs>
</svg>
